<svg version="1.2" xmlns="http://www.w3.org/2000/svg" viewBox="0 0 512 512" width="512" height="512">
	<g fill-rule="evenodd" fill="#004880">
        <path d="m508.6 232.1v141.3c0 72-58.4 130.4-130.4 130.4h-141.3c-72 0-130.4-58.4-130.4-130.4v-141.3c0-72 58.4-130.5 130.4-130.5h141.3c72 0 130.4 58.5 130.4 130.5zm-250.1-18.2c0-29.2-23.7-52.9-52.9-52.9-29.3 0-52.9 23.7-52.9 52.9 0 29.2 23.6 52.9 52.9 52.9 29.2 0 52.9-23.7 52.9-52.9zm200.6 162.3c0-46.7-37.9-84.7-84.7-84.7-46.7 0-84.6 38-84.6 84.7 0 46.8 37.9 84.7 84.6 84.7 46.8 0 84.7-37.9 84.7-84.7z"/>
        <path d="m84.7 52c0 23.4-19 42.3-42.4 42.3-23.4 0-42.3-18.9-42.3-42.3 0-23.4 18.9-42.3 42.3-42.3 23.4 0 42.4 18.9 42.4 42.3z"/>
        <path d="m341.2 393.9c0-30.9 25.1-55.9 56-55.9 30.9 0 55.9 25 55.9 55.9 0 30.9-25 56-55.9 56-30.9 0-56-25.1-56-56zm42.3-24.7c0-8.1-6.6-14.7-14.7-14.7-8.1 0-14.7 6.6-14.7 14.7 0 8.2 6.6 14.8 14.7 14.8 8.1 0 14.7-6.6 14.7-14.8zm55.8 45.2c0-13-10.5-23.6-23.5-23.6-13 0-23.6 10.6-23.6 23.6 0 13 10.6 23.6 23.6 23.6 13 0 23.5-10.6 23.5-23.6z"/>
        <path d="m323.4 336c-6.5 0-11.8-5.3-11.8-11.8 0-6.5 5.3-11.8 11.8-11.8 6.5 0 11.8 5.3 11.8 11.8 0 6.5-5.3 11.8-11.8 11.8z"/>
    </g>
</svg>